<svg width="201" height="52" viewBox="0 0 201 52" fill="none" xmlns="http://www.w3.org/2000/svg">
<path d="M150.229 1H100.5H11.0425C5.51963 1 1.04248 5.47715 1.04248 11V41C1.04248 46.5228 5.51964 51 11.0425 51H100.5" stroke="#646363" stroke-linejoin="round"/>
<path d="M55.6019 35L52.0769 28.175H51.8269H47.8269V35H45.6269V17.6H51.5269C53.6102 17.6 55.1602 18.0417 56.1769 18.925C57.1935 19.7917 57.7019 21.0667 57.7019 22.75C57.7019 24 57.4269 25.0583 56.8769 25.925C56.3269 26.7917 55.5185 27.4083 54.4519 27.775L58.2519 35H55.6019ZM51.5519 26.1C52.8519 26.1 53.8019 25.85 54.4019 25.35C55.0185 24.8333 55.3269 23.9667 55.3269 22.75C55.3269 21.6333 55.0185 20.85 54.4019 20.4C53.8019 19.9333 52.8435 19.7 51.5269 19.7H47.8269V26.1H51.5519ZM79.148 35.3C78.1813 35.3 77.173 35.175 76.123 34.925C75.073 34.675 74.0813 34.3333 73.148 33.9V31.525C74.248 32.125 75.2646 32.5667 76.198 32.85C77.148 33.1333 78.0813 33.275 78.998 33.275C80.148 33.275 81.0396 33.0167 81.673 32.5C82.3063 31.9833 82.623 31.275 82.623 30.375C82.623 29.7583 82.448 29.2417 82.098 28.825C81.748 28.4083 81.3063 28.075 80.773 27.825C80.2396 27.575 79.523 27.3 78.623 27C77.5396 26.6333 76.6646 26.2833 75.998 25.95C75.348 25.6167 74.7896 25.1417 74.323 24.525C73.8563 23.9083 73.623 23.1083 73.623 22.125C73.623 20.6583 74.1563 19.4917 75.223 18.625C76.2896 17.7417 77.723 17.3 79.523 17.3C81.273 17.3 82.8813 17.675 84.348 18.425V20.725C82.698 19.7917 81.0896 19.325 79.523 19.325C78.373 19.325 77.473 19.5583 76.823 20.025C76.173 20.475 75.848 21.1 75.848 21.9C75.848 22.45 76.0146 22.9083 76.348 23.275C76.6813 23.6417 77.0896 23.9417 77.573 24.175C78.0563 24.3917 78.7396 24.6583 79.623 24.975C80.723 25.3417 81.623 25.7 82.323 26.05C83.023 26.4 83.6146 26.9083 84.098 27.575C84.598 28.2417 84.848 29.1 84.848 30.15C84.848 31.1833 84.6146 32.0917 84.148 32.875C83.6813 33.6417 83.0146 34.2417 82.148 34.675C81.2813 35.0917 80.2813 35.3 79.148 35.3ZM111.08 35L107.555 28.175H107.305H103.305V35H101.105V17.6H107.005C109.089 17.6 110.639 18.0417 111.655 18.925C112.672 19.7917 113.18 21.0667 113.18 22.75C113.18 24 112.905 25.0583 112.355 25.925C111.805 26.7917 110.997 27.4083 109.93 27.775L113.73 35H111.08ZM107.03 26.1C108.33 26.1 109.28 25.85 109.88 25.35C110.497 24.8333 110.805 23.9667 110.805 22.75C110.805 21.6333 110.497 20.85 109.88 20.4C109.28 19.9333 108.322 19.7 107.005 19.7H103.305V26.1H107.03ZM128.997 17.6L122.622 35H119.872L113.497 17.6H115.822L121.322 32.575L126.797 17.6H128.997ZM154.093 35L150.568 28.175H150.318H146.318V35H144.118V17.6H150.018C152.101 17.6 153.651 18.0417 154.668 18.925C155.685 19.7917 156.193 21.0667 156.193 22.75C156.193 24 155.918 25.0583 155.368 25.925C154.818 26.7917 154.01 27.4083 152.943 27.775L156.743 35H154.093ZM150.043 26.1C151.343 26.1 152.293 25.85 152.893 25.35C153.51 24.8333 153.818 23.9667 153.818 22.75C153.818 21.6333 153.51 20.85 152.893 20.4C152.293 19.9333 151.335 19.7 150.018 19.7H146.318V26.1H150.043Z" fill="#3B4040"/>
<path fill-rule="evenodd" clip-rule="evenodd" d="M130.337 18H141.277V21H130.337V18ZM130.337 32H141.277V35H130.337V32ZM138.294 25H130.337V28H138.294V25Z" fill="#3B4040"/>
<path fill-rule="evenodd" clip-rule="evenodd" d="M87.5703 18H98.5106V21H87.5703V18ZM87.5703 32H98.5106V35H87.5703V32ZM95.5269 25H87.5703V28H95.5269V25Z" fill="#3B4040"/>
<path fill-rule="evenodd" clip-rule="evenodd" d="M60.7168 18H71.6571V21H60.7168V18ZM60.7168 32H71.6571V35H60.7168V32ZM67.6788 25H60.7168V28H67.6788V25Z" fill="#3B4040"/>
<rect width="1.99458" height="4.51454" transform="matrix(0.70518 0.709028 -0.70518 0.709028 66.8843 11)" fill="#3B4040"/>
<ellipse cx="102.738" cy="50.25" rx="1.24322" ry="1.25" fill="#646363"/>
<ellipse cx="112.684" cy="50.25" rx="1.24322" ry="1.25" fill="#646363"/>
<ellipse cx="122.629" cy="50.25" rx="1.24322" ry="1.25" fill="#646363"/>
<ellipse cx="132.575" cy="50.25" rx="1.24322" ry="1.25" fill="#646363"/>
<ellipse cx="199.211" cy="32.25" rx="1.24322" ry="1.25" fill="#646363"/>
<ellipse cx="199.211" cy="22.25" rx="1.24322" ry="1.25" fill="#646363"/>
<ellipse cx="199.211" cy="12.25" rx="1.24322" ry="1.25" fill="#646363"/>
<ellipse cx="195.233" cy="3.25" rx="1.24322" ry="1.25" fill="#646363"/>
<ellipse cx="185.288" cy="1.25" rx="1.24322" ry="1.25" fill="#646363"/>
<ellipse cx="175.342" cy="1.25" rx="1.24321" ry="1.25" fill="#646363"/>
<ellipse cx="165.396" cy="1.25" rx="1.24322" ry="1.25" fill="#646363"/>
<ellipse cx="155.45" cy="1.25" rx="1.24322" ry="1.25" fill="#646363"/>
<ellipse cx="142.521" cy="50.25" rx="1.24322" ry="1.25" fill="#646363"/>
<ellipse cx="152.466" cy="50.25" rx="1.24322" ry="1.25" fill="#646363"/>
<ellipse cx="162.412" cy="50.25" rx="1.24322" ry="1.25" fill="#646363"/>
<ellipse cx="172.358" cy="50.25" rx="1.24322" ry="1.25" fill="#646363"/>
<ellipse cx="182.304" cy="50.25" rx="1.24322" ry="1.25" fill="#646363"/>
<ellipse cx="192.25" cy="49.75" rx="1.24322" ry="1.25" fill="#646363"/>
<ellipse cx="199.211" cy="42.25" rx="1.24322" ry="1.25" fill="#646363"/>
</svg>
